<svg width="41" height="21" viewBox="0 0 41 21" fill="none" xmlns="http://www.w3.org/2000/svg">
<path d="M2.12596 16.7111C1.94656 16.4223 1.70736 15.9609 1.55962 15.6192C0.697785 13.6185 0.65909 11.5473 1.38373 9.56073C2.18225 7.38038 3.70892 5.7143 5.68234 4.86189C8.16231 3.79461 10.9026 4.00243 13.2805 5.4149C14.7896 6.2814 15.859 7.6199 16.6716 9.51494C16.7736 9.75798 16.8651 10.0151 16.9565 10.237L2.12596 16.7111ZM7.07886 8.07781C5.3165 8.83512 4.40894 10.4906 4.5989 12.4279L12.0564 9.21201C10.7724 7.70444 9.10505 7.20426 7.07886 8.07781V8.07781ZM12.985 15.0732C12.9815 15.0732 12.9815 15.0768 12.9815 15.0768L12.8268 14.9711C12.38 15.6932 11.687 16.2814 10.8111 16.6618C9.14374 17.3874 7.59948 17.2007 6.48789 16.225L6.38588 16.38C6.38588 16.38 6.38588 16.3765 6.38236 16.3765L4.48984 19.212C4.96121 19.5396 5.46424 19.8143 5.9919 20.0362C8.0814 20.9063 10.2202 20.864 12.3272 19.9482C13.8504 19.286 15.0464 18.2786 15.8625 17L12.985 15.0732ZM22.1381 0.691406V16.4505L24.5864 17.4438L23.1969 20.6914L20.4953 19.5642C19.8903 19.3001 19.4752 18.8985 19.1656 18.4441C18.8666 17.9827 18.645 17.3452 18.645 16.4927V0.691406H22.1381ZM28.4769 12.4385C28.4769 11.0965 29.0714 9.89183 30.0071 9.07464L27.4955 6.27084C25.7929 7.77841 24.72 9.97989 24.72 12.4315C24.7165 14.8865 25.7894 17.0915 27.4885 18.5991L29.9966 15.7953C29.0644 14.9746 28.4769 13.777 28.4769 12.4385V12.4385ZM32.9373 16.9084C32.4449 16.9084 31.9665 16.8238 31.5232 16.6759L30.3237 20.2441C31.1433 20.5188 32.0192 20.6703 32.9338 20.6703C36.9088 20.6738 40.226 17.8489 40.9964 14.0975L37.3098 13.3437C36.8912 15.3832 35.0937 16.9119 32.9373 16.9084V16.9084ZM32.9479 4.20673C32.0368 4.20673 31.1609 4.35467 30.3413 4.62589L31.5303 8.19757C31.977 8.04963 32.4519 7.96862 32.9444 7.96862C35.1042 7.97214 36.9053 9.50789 37.3133 11.5509L40.9999 10.8041C40.2436 7.04576 36.9264 4.21025 32.9479 4.20673V4.20673Z" fill="url(#paint0_linear_4303_228)"/>
<defs>
<linearGradient id="paint0_linear_4303_228" x1="20.937" y1="0.691406" x2="20.937" y2="20.6914" gradientUnits="userSpaceOnUse">
<stop stop-color="white"/>
<stop offset="1" stop-color="white" stop-opacity="0.75"/>
</linearGradient>
</defs>
</svg>
